<svg xmlns="http://www.w3.org/2000/svg" viewBox="0 0 965.28 186.73"><defs><style>.cls-1{fill:#0f0f0f;}.cls-2{fill:#3f3f3f;}.cls-3{fill:#2d2d2d;}</style></defs><title>Asset 1</title><g id="Layer_2" data-name="Layer 2"><g id="logo_bottom" data-name="logo bottom"><polygon class="cls-1" points="289.27 66.42 234.4 66.42 234.4 3.88 215.59 3.88 215.59 172.05 234.4 172.05 234.4 85.23 308.07 85.23 308.07 75.83 308.07 66.42 308.07 16.46 289.27 16.46 289.27 66.42"/><rect class="cls-1" x="215.59" y="174.53" width="18.8" height="11.32"/><rect class="cls-1" x="289.27" y="3.56" width="18.8" height="10.51"/><rect class="cls-1" x="504.42" y="154.61" width="18.8" height="10.51"/><rect class="cls-1" x="434.84" y="3.56" width="18.8" height="10.51"/><polygon class="cls-1" points="453.64 16.46 434.84 16.46 434.84 185.84 443.74 185.84 453.64 185.84 523.5 185.84 523.5 167.04 453.64 167.04 453.64 16.46"/><path class="cls-1" d="M613.09,3.83H552.64v0h-11v182H631.9V3.83H613.09Zm0,130.37L570.34,22.63h42.75ZM560.44,49.35,605.54,167h-45.1Z"/><polygon class="cls-1" points="850.02 160.74 849.77 160.55 849.93 160.55 849.93 33.36 849.95 33.34 849.93 33.32 849.93 33.19 849.81 33.19 822.82 3.52 822.65 3.68 755.66 3.68 755.66 22.74 814.53 22.74 830.87 40.69 830.87 154.54 822.64 165.59 774.72 165.59 774.72 157.66 755.66 157.66 755.66 184.65 759.23 184.65 774.72 184.65 832.32 184.65 832.32 184.5 850.02 160.74"/><rect class="cls-1" x="755.66" y="25.39" width="19.06" height="129.94"/><path class="cls-1" d="M418.64,2.56H324.58V172.05H343.2V85.23h75.58V3.35h-.14ZM343.2,66.43V21.37H400V66.43Z"/><rect class="cls-1" x="324.58" y="174.53" width="18.8" height="11.32"/><polygon class="cls-1" points="12.32 186.73 33.65 186.49 33.65 175.98 12.32 176.22 12.32 186.73"/><polygon class="cls-1" points="21.07 35.8 0.18 35.66 0.18 46.17 21.07 46.31 21.07 35.8"/><polygon class="cls-1" points="0 3.8 0 33.34 22.07 33.43 22.07 22.69 72.93 22.69 72.99 69.8 12.7 124.2 12.53 174.07 33.91 174 33.78 126.23 91.69 72.99 91.6 72.88 91.73 72.88 91.73 22.69 91.73 18.66 91.73 3.88 22.07 3.88 0 3.8"/><polygon class="cls-1" points="97.5 185.24 116.83 185.24 119.69 175.33 100.36 175.33 97.5 185.24"/><rect class="cls-1" x="179.88" y="174.53" width="18.8" height="10.51"/><path class="cls-1" d="M125.75,3.56H107V82.79h18.8v-.16H131L101.3,172.84l19,.09,30.37-90.3h29.22v89.42h18.81V3.56H125.75Zm54.13,60.26H125.75V22.37h54.13Z"/><polygon class="cls-1" points="640.23 185.34 659.57 185.34 662.43 175.44 643.1 175.44 640.23 185.34"/><rect class="cls-1" x="722.62" y="174.63" width="18.8" height="10.51"/><path class="cls-1" d="M668.49,3.66H649.68V82.89h18.81v-.16h5.21L644,172.94l19,.09,30.37-90.3h29.22v89.42h18.81V3.66H668.49Zm54.13,60.26H668.49V22.47h54.13Z"/><polygon class="cls-1" points="939.03 161.58 939.03 161.57 897.5 161.57 960.05 93.15 959.95 93.01 960.09 93.01 960.09 28.17 960.09 22.97 960.09 3.88 884.47 3.88 864.06 3.88 864.06 42.05 884.47 42.05 884.47 28.17 939.68 28.17 940.27 87.89 884.27 149.9 884.74 50.16 864.8 70.65 864.33 185.18 864.52 185.18 864.52 185.86 917.49 185.86 917.49 185.88 961.27 185.88 961.27 161.58 939.03 161.58"/></g><g id="logo_mid" data-name="logo mid"><polygon class="cls-2" points="943.03 159.02 943.03 159.01 901.5 159.01 964.05 90.59 963.95 90.45 964.09 90.45 964.09 25.61 964.09 20.41 964.09 1.32 888.47 1.32 868.06 1.32 868.06 39.49 888.47 39.49 888.47 25.61 943.68 25.61 944.27 85.33 888.27 147.33 888.74 47.6 868.8 68.09 868.33 182.62 868.52 182.62 868.52 183.3 921.49 183.3 921.49 183.32 965.27 183.32 965.27 159.02 943.03 159.02"/><polygon class="cls-2" points="293.27 63.86 238.4 63.86 238.4 1.32 219.59 1.32 219.59 169.49 238.4 169.49 238.4 82.67 312.07 82.67 312.07 73.27 312.07 63.86 312.07 13.9 293.27 13.9 293.27 63.86"/><rect class="cls-2" x="219.59" y="171.97" width="18.8" height="11.32"/><rect class="cls-2" x="293.27" y="1" width="18.8" height="10.51"/><rect class="cls-2" x="508.42" y="152.05" width="18.8" height="10.51"/><rect class="cls-2" x="438.84" y="1" width="18.8" height="10.51"/><polygon class="cls-2" points="457.64 13.9 438.84 13.9 438.84 183.28 447.74 183.28 457.64 183.28 527.5 183.28 527.5 164.48 457.64 164.48 457.64 13.9"/><path class="cls-2" d="M617.09,1.27H556.64v.05h-11v182H635.9V1.27H617.09Zm0,130.37L574.34,20.07h42.75ZM564.44,46.79l45.1,117.69h-45.1Z"/><polygon class="cls-2" points="854.02 158.17 853.77 157.99 853.93 157.99 853.93 30.8 853.95 30.78 853.93 30.76 853.93 30.63 853.81 30.63 826.82 0.96 826.65 1.12 759.66 1.12 759.66 20.18 818.53 20.18 834.87 38.13 834.87 151.98 826.64 163.03 778.72 163.03 778.72 155.1 759.66 155.1 759.66 182.09 763.23 182.09 778.72 182.09 836.32 182.09 836.32 181.94 854.02 158.17"/><rect class="cls-2" x="759.66" y="22.83" width="19.06" height="129.94"/><path class="cls-2" d="M422.64,0H328.58V169.49H347.2V82.67h75.58V.79h-.14ZM347.2,63.86V18.8H404V63.86Z"/><rect class="cls-2" x="328.58" y="171.97" width="18.8" height="11.32"/><polygon class="cls-2" points="17.32 184.17 38.05 183.93 38.05 173.42 17.32 173.66 17.32 184.17"/><polygon class="cls-2" points="25.07 33.24 4.18 33.1 4.18 43.61 25.07 43.75 25.07 33.24"/><polygon class="cls-2" points="4 1.24 4 30.78 26.07 30.87 26.07 20.13 76.93 20.13 76.99 67.24 16.7 121.64 16.53 171.51 37.91 171.44 37.78 123.67 95.69 70.43 95.6 70.32 95.73 70.32 95.73 20.13 95.73 16.1 95.73 1.32 26.07 1.32 4 1.24"/><polygon class="cls-2" points="101.5 182.68 120.83 182.68 123.69 172.77 104.36 172.77 101.5 182.68"/><rect class="cls-2" x="183.88" y="171.97" width="18.8" height="10.51"/><path class="cls-2" d="M129.75,1H111V80.23h18.8v-.16H135l-29.66,90.2,19,.1,30.37-90.3h29.22v89.42h18.81V1H129.75Zm54.13,60.26H129.75V19.8h54.13Z"/><polygon class="cls-2" points="644.23 182.78 663.57 182.78 666.43 172.87 647.1 172.87 644.23 182.78"/><rect class="cls-2" x="726.62" y="172.07" width="18.8" height="10.51"/><path class="cls-2" d="M672.49,1.1H653.68V80.33h18.81v-.16h5.21L648,170.38l19,.09,30.37-90.3h29.22v89.42h18.81V1.1H672.49Zm54.13,60.26H672.49V19.9h54.13Z"/></g><g id="logo_top" data-name="logo top"><polygon class="cls-3" points="941.5 161.14 941.5 161.13 899.97 161.13 962.52 92.7 962.41 92.57 962.56 92.57 962.56 27.73 962.56 22.52 962.56 3.44 886.94 3.44 866.53 3.44 866.53 41.61 886.94 41.61 886.94 27.73 942.15 27.73 942.74 87.45 886.74 149.45 887.21 49.72 867.27 70.2 866.8 184.74 866.99 184.74 866.99 185.42 919.96 185.42 919.96 185.44 963.75 185.44 963.75 161.14 941.5 161.14"/><polygon class="cls-3" points="291.74 65.98 236.87 65.98 236.87 3.44 218.06 3.44 218.06 171.6 236.87 171.6 236.87 84.79 310.54 84.79 310.54 75.38 310.54 65.98 310.54 16.02 291.74 16.02 291.74 65.98"/><rect class="cls-3" x="218.06" y="174.08" width="18.8" height="11.32"/><rect class="cls-3" x="291.74" y="3.12" width="18.8" height="10.51"/><rect class="cls-3" x="506.89" y="154.17" width="18.8" height="10.51"/><rect class="cls-3" x="437.31" y="3.12" width="18.8" height="10.51"/><polygon class="cls-3" points="456.11 16.02 437.31 16.02 437.31 185.4 446.21 185.4 456.11 185.4 525.97 185.4 525.97 166.6 456.11 166.6 456.11 16.02"/><path class="cls-3" d="M615.56,3.39H555.11v0h-11v182h90.26V3.39H615.56Zm0,130.37L572.81,22.19h42.75ZM562.91,48.91,608,166.6h-45.1Z"/><polygon class="cls-3" points="852.49 160.29 852.24 160.11 852.4 160.11 852.4 32.91 852.42 32.9 852.4 32.87 852.4 32.74 852.28 32.74 825.29 3.08 825.12 3.24 758.13 3.24 758.13 22.29 817 22.29 833.34 40.25 833.34 154.1 825.11 165.15 777.19 165.15 777.19 157.22 758.13 157.22 758.13 184.21 761.7 184.21 777.19 184.21 834.79 184.21 834.79 184.06 852.49 160.29"/><rect class="cls-3" x="758.13" y="24.95" width="19.06" height="129.94"/><path class="cls-3" d="M421.11,2.12H327.05V171.6h18.62V84.79h75.58V2.9h-.14ZM345.67,66V20.92h56.77V66Z"/><rect class="cls-3" x="327.05" y="174.08" width="18.8" height="11.32"/><polygon class="cls-3" points="14.99 186.28 36.42 186.05 36.42 175.54 14.99 175.77 14.99 186.28"/><polygon class="cls-3" points="23.54 35.35 2.65 35.22 2.65 45.73 23.54 45.86 23.54 35.35"/><polygon class="cls-3" points="2.47 3.35 2.47 32.9 24.54 32.99 24.54 22.24 75.4 22.24 75.46 69.36 15.17 123.76 15 173.63 36.38 173.55 36.25 125.79 94.16 72.54 94.07 72.44 94.2 72.44 94.2 22.24 94.2 18.21 94.2 3.44 24.54 3.44 2.47 3.35"/><polygon class="cls-3" points="99.97 184.8 119.3 184.8 122.16 174.89 102.83 174.89 99.97 184.8"/><rect class="cls-3" x="182.35" y="174.08" width="18.8" height="10.51"/><path class="cls-3" d="M128.22,3.12H109.41V82.34h18.81v-.16h5.21l-29.66,90.21,19,.1,30.37-90.31h29.22V171.6h18.81V3.12H128.22Zm54.13,60.26H128.22V21.92h54.13Z"/><polygon class="cls-3" points="642.7 184.9 662.04 184.9 664.9 174.99 645.57 174.99 642.7 184.9"/><rect class="cls-3" x="725.09" y="174.18" width="18.8" height="10.51"/><path class="cls-3" d="M671,3.22H652.15V82.44H671v-.16h5.21l-29.66,90.21,19,.1,30.37-90.31h29.22v89.43H743.9V3.22H671Zm54.13,60.26H671V22h54.13Z"/></g></g></svg>